<?xml version="1.0" encoding="utf-8"?><svg xmlns="http://www.w3.org/2000/svg" xmlns:xlink="http://www.w3.org/1999/xlink"><symbol viewBox="0 0 24 24" id="skype"><path fill="#00BFA5" d="M18 24a5.976 5.976 0 0 1-3.656-1.25c-.75.156-1.547.25-2.344.25-6.078 0-11-4.922-11-11 0-.797.094-1.594.25-2.344A5.976 5.976 0 0 1 0 6c0-3.313 2.688-6 6-6 1.375 0 2.641.469 3.656 1.25C10.406 1.094 11.203 1 12 1c6.078 0 11 4.922 11 11 0 .797-.094 1.594-.25 2.344A5.976 5.976 0 0 1 24 18a6 6 0 0 1-6 6zm-4.531-13.547l-1.625-.375c-1.188-.281-2.078-.484-2.078-1.391 0-.828.875-1.203 2.25-1.203 2.453 0 2.5 1.797 4.016 1.797 1.016 0 1.625-.797 1.625-1.703 0-1.797-2.984-2.969-5.938-2.969-2.703 0-5.844 1.172-5.844 4.344 0 2.625 1.75 3.563 4.031 4.109l2.281.563c1.391.344 2.25.5 2.25 1.5 0 .797-.891 1.406-2.266 1.406-2.891 0-3.047-2.406-4.719-2.406-1.094 0-1.578.781-1.578 1.641 0 1.922 2.938 3.484 6.453 3.484 2.938 0 6-1.469 6-4.641.001-2.718-2.639-3.656-4.858-4.156z"/></symbol><symbol viewBox="0 0 186.861 110.966" id="stars1"><circle fill="inherit" cx="70.704" cy="105.783" r="5.182"/><circle fill="inherit" cx="5.183" cy="78.269" r="5.183"/><circle fill="inherit" cx="121.8" cy="63.519" r="2.848"/><circle fill="inherit" cx="48.859" cy="49.678" r="2.848"/><circle fill="inherit" cx="33.16" cy="17.826" r="2.848"/><circle fill="inherit" cx="87.597" cy="7.948" r="2.848"/><path fill="none" stroke="#FFF" stroke-width=".75" stroke-miterlimit="10" d="M5.183 78.269l65.521 27.513 51.097-42.263z"/><path fill="none" stroke="#FFF" stroke-width=".75" stroke-miterlimit="10" d="M33.16 17.825L5.183 78.269l65.521 27.513L88.01 7.825zm15.699 31.852l72.942 13.842"/><circle fill="inherit" cx="181.678" cy="93.211" r="5.182"/><circle fill="inherit" cx="136.611" cy="5.184" r="5.183"/><circle fill="inherit" cx="176.274" cy="27.121" r="2.848"/><circle fill="inherit" cx="123.17" cy="79.005" r="2.848"/><circle fill="inherit" cx="88.066" cy="73.644" r="2.848"/><circle fill="inherit" cx="111.13" cy="23.354" r="2.848"/><path fill="none" stroke="inherit" stroke-width=".75" stroke-miterlimit="10" d="M123.17 79.005l58.508 14.205-5.404-66.09z"/><path fill="none" stroke="inherit" stroke-width=".75" stroke-miterlimit="10" d="M88.065 73.644l48.546-68.461 45.067 88.027-70.413-70.265zm35.104 5.36l53.105-51.884"/></symbol><symbol viewBox="0 0 171.5 132.5" id="stars2"><circle fill="inherit" cx="4.25" cy="92.25" r="4.25"/><circle fill="inherit" cx="48.25" cy="128.25" r="4.25"/><circle fill="inherit" cx="72.75" cy="52.75" r="4.75"/><circle fill="inherit" cx="8.25" cy="22.25" r="4.25"/><circle fill="inherit" cx="117.25" cy="96.25" r="2.75"/><circle fill="inherit" cx="126.25" cy="41.25" r="1.911"/><circle fill="inherit" cx="167.25" cy="4.25" r="4.25"/><path fill="none" stroke="inherit" stroke-miterlimit="10" d="M72.75 52.75l44.5 43.5-113-4 44 36 69-32 50-92-41 37-53.5 13.084L8.25 22.25m40 109.084L8.5 24.339"/></symbol><symbol viewBox="0 0 103.03 124.03" id="stars3"><circle fill="inherit" cx="5.182" cy="60.182" r="5.182"/><circle fill="inherit" cx="50.182" cy="5.182" r="5.182"/><circle fill="inherit" cx="31.182" cy="121.182" r="2.848"/><circle fill="inherit" cx="65.182" cy="55.182" r="2.848"/><circle fill="inherit" cx="100.182" cy="49.182" r="2.848"/><circle fill="inherit" cx="94.182" cy="104.182" r="2.848"/><path fill="none" stroke="inherit" stroke-width=".75" stroke-miterlimit="10" d="M50.183 5.182l-45 55 26 61.001z"/><path fill="none" stroke="inherit" stroke-width=".75" stroke-miterlimit="10" d="M100.183 49.182l-50-44-45 55 89 44.43z"/><path fill="inherit" stroke="inherit" stroke-width=".75" stroke-miterlimit="10" d="M65.183 55.182l-34 66.001"/></symbol></svg>